<?xml version="1.0" encoding="utf-8"?>
<!-- Generator: Adobe Illustrator 24.2.3, SVG Export Plug-In . SVG Version: 6.00 Build 0)  -->
<svg version="1.1" id="Layer_1" xmlns="http://www.w3.org/2000/svg" xmlns:xlink="http://www.w3.org/1999/xlink" x="0px" y="0px"
	 viewBox="0 0 49 77" style="enable-background:new 0 0 49 77;" xml:space="preserve">
<g>
	<path d="M9,29.5c-3.03,0-5.5-2.47-5.5-5.5s2.47-5.5,5.5-5.5h30c3.03,0,5.5,2.47,5.5,5.5s-2.47,5.5-5.5,5.5H9z"/>
	<path d="M39,19c2.76,0,5,2.24,5,5c0,2.76-2.24,5-5,5H9c-2.76,0-5-2.24-5-5c0-2.76,2.24-5,5-5H39 M39,18H9c-3.31,0-6,2.69-6,6v0
		c0,3.31,2.69,6,6,6h30c3.31,0,6-2.69,6-6v0C45,20.69,42.31,18,39,18L39,18z"/>
</g>
<g>
	<path d="M10.5,73.5c-2.76,0-5-2.24-5-5v-27c0-2.76,2.24-5,5-5s5,2.24,5,5v27C15.5,71.26,13.26,73.5,10.5,73.5z"/>
	<path d="M10.5,37c2.48,0,4.5,2.02,4.5,4.5v27c0,2.48-2.02,4.5-4.5,4.5S6,70.98,6,68.5v-27C6,39.02,8.02,37,10.5,37 M10.5,36
		C7.46,36,5,38.46,5,41.5v27c0,3.04,2.46,5.5,5.5,5.5s5.5-2.46,5.5-5.5v-27C16,38.46,13.54,36,10.5,36L10.5,36z"/>
</g>
<g>
	<path d="M9.5,45.5c-2.21,0-4-1.79-4-4v-1c0-2.21,1.79-4,4-4h24c2.21,0,4,1.79,4,4v1c0,2.21-1.79,4-4,4H9.5z"/>
	<path d="M33.5,37c1.93,0,3.5,1.57,3.5,3.5v1c0,1.93-1.57,3.5-3.5,3.5h-24C7.57,45,6,43.43,6,41.5v-1C6,38.57,7.57,37,9.5,37H33.5
		 M33.5,36h-24C7.01,36,5,38.01,5,40.5v1C5,43.99,7.01,46,9.5,46h24c2.49,0,4.5-2.01,4.5-4.5v-1C38,38.01,35.99,36,33.5,36L33.5,36z
		"/>
</g>
<g>
	<path d="M9,14.5c-1.93,0-3.5-1.57-3.5-3.5V7c0-1.93,1.57-3.5,3.5-3.5h1c1.93,0,3.5,1.57,3.5,3.5v4c0,1.93-1.57,3.5-3.5,3.5H9z"/>
	<path d="M10,4c1.65,0,3,1.35,3,3v4c0,1.65-1.35,3-3,3H9c-1.65,0-3-1.35-3-3V7c0-1.65,1.35-3,3-3H10 M10,3H9C6.79,3,5,4.79,5,7v4
		c0,2.21,1.79,4,4,4h1c2.21,0,4-1.79,4-4V7C14,4.79,12.21,3,10,3L10,3z"/>
</g>
<g>
	<path d="M19.5,14.5c-1.38,0-2.5-1.12-2.5-2.5V8c0-1.38,1.12-2.5,2.5-2.5S22,6.62,22,8v4C22,13.38,20.88,14.5,19.5,14.5z"/>
	<path d="M19.5,6c1.1,0,2,0.9,2,2v4c0,1.1-0.9,2-2,2s-2-0.9-2-2V8C17.5,6.9,18.4,6,19.5,6 M19.5,5c-1.66,0-3,1.34-3,3v4
		c0,1.66,1.34,3,3,3s3-1.34,3-3V8C22.5,6.34,21.16,5,19.5,5L19.5,5z"/>
</g>
<g>
	<path d="M27.5,14.5c-1.1,0-2-0.9-2-2v-3c0-1.1,0.9-2,2-2s2,0.9,2,2v3C29.5,13.6,28.6,14.5,27.5,14.5z"/>
	<path d="M27.5,8C28.33,8,29,8.67,29,9.5v3c0,0.83-0.67,1.5-1.5,1.5S26,13.33,26,12.5v-3C26,8.67,26.67,8,27.5,8 M27.5,7
		C26.12,7,25,8.12,25,9.5v3c0,1.38,1.12,2.5,2.5,2.5s2.5-1.12,2.5-2.5v-3C30,8.12,28.88,7,27.5,7L27.5,7z"/>
</g>
<g>
	<path d="M34,14.5c-0.83,0-1.5-0.67-1.5-1.5v-2c0-0.83,0.67-1.5,1.5-1.5s1.5,0.67,1.5,1.5v2C35.5,13.83,34.83,14.5,34,14.5z"/>
	<path d="M34,10c0.55,0,1,0.45,1,1v2c0,0.55-0.45,1-1,1s-1-0.45-1-1v-2C33,10.45,33.45,10,34,10 M34,9c-1.1,0-2,0.9-2,2v2
		c0,1.1,0.9,2,2,2s2-0.9,2-2v-2C36,9.9,35.1,9,34,9L34,9z"/>
</g>
<g>
	<path d="M39.37,14.5c-0.48,0-0.87-0.39-0.87-0.87v-1.27c0-0.48,0.39-0.87,0.87-0.87h0.27c0.48,0,0.87,0.39,0.87,0.87v1.27
		c0,0.48-0.39,0.87-0.87,0.87H39.37z"/>
	<path d="M39.63,12c0.2,0,0.37,0.16,0.37,0.37v1.27c0,0.2-0.16,0.37-0.37,0.37h-0.27c-0.2,0-0.37-0.16-0.37-0.37v-1.27
		c0-0.2,0.16-0.37,0.37-0.37H39.63 M39.63,11h-0.27C38.61,11,38,11.61,38,12.37v1.27c0,0.75,0.61,1.37,1.37,1.37h0.27
		c0.75,0,1.37-0.61,1.37-1.37v-1.27C41,11.61,40.39,11,39.63,11L39.63,11z"/>
</g>
</svg>
